<svg xmlns="http://www.w3.org/2000/svg" xmlns:xlink="http://www.w3.org/1999/xlink" width="500"
    zoomAndPan="magnify" viewBox="0 0 375 374.999991" height="500"
    preserveAspectRatio="xMidYMid meet" version="1.0">
    <defs>
        <g />
        <clipPath id="17cef9ff1b">
            <path
                d="M 308.359375 209.007812 L 375 209.007812 L 375 283.507812 L 308.359375 283.507812 Z M 308.359375 209.007812 "
                clip-rule="nonzero" />
        </clipPath>
        <clipPath id="63a476438b">
            <path
                d="M 345.609375 209.007812 C 325.035156 209.007812 308.359375 225.683594 308.359375 246.257812 C 308.359375 266.828125 325.035156 283.507812 345.609375 283.507812 C 366.179688 283.507812 382.859375 266.828125 382.859375 246.257812 C 382.859375 225.683594 366.179688 209.007812 345.609375 209.007812 Z M 345.609375 209.007812 "
                clip-rule="nonzero" />
        </clipPath>
        <clipPath id="4bb666e7fc">
            <path
                d="M 329.875 230.523438 L 361.34375 230.523438 L 361.34375 261.988281 L 329.875 261.988281 Z M 329.875 230.523438 "
                clip-rule="nonzero" />
        </clipPath>
        <clipPath id="dcedc18b6e">
            <path
                d="M 345.609375 230.523438 C 336.917969 230.523438 329.875 237.566406 329.875 246.257812 C 329.875 254.945312 336.917969 261.988281 345.609375 261.988281 C 354.296875 261.988281 361.34375 254.945312 361.34375 246.257812 C 361.34375 237.566406 354.296875 230.523438 345.609375 230.523438 Z M 345.609375 230.523438 "
                clip-rule="nonzero" />
        </clipPath>
    </defs>
    <g class="logo-primary" fill-opacity="1">
        <g transform="translate(-1.758888, 256.631916)">
            <g>
                <path
                    d="M 64.390625 -85.9375 L 64.390625 0 L 15.578125 0 L 15.578125 -214.203125 L 64.390625 -214.203125 L 64.390625 -128.78125 L 133.453125 -128.78125 L 133.453125 -214.203125 L 182.265625 -214.203125 L 182.265625 0 L 133.453125 0 L 133.453125 -85.9375 Z M 64.390625 -85.9375 " />
            </g>
        </g>
    </g>
    <g class="logo-primary" fill-opacity="1">
        <g transform="translate(181.713183, 256.631916)">
            <g>
                <path
                    d="M 15.578125 -214.203125 L 77.625 -214.203125 C 107.40625 -214.203125 132.851562 -204.03125 153.96875 -183.6875 C 175.082031 -163.351562 185.640625 -137.867188 185.640625 -107.234375 C 185.640625 -76.421875 175.125 -50.84375 154.09375 -30.5 C 133.0625 -10.164062 107.570312 0 77.625 0 L 15.578125 0 Z M 64.390625 -43.625 L 71.921875 -43.625 C 89.742188 -43.625 104.320312 -49.632812 115.65625 -61.65625 C 127 -73.6875 132.757812 -88.789062 132.9375 -106.96875 C 132.9375 -125.144531 127.265625 -140.289062 115.921875 -152.40625 C 104.585938 -164.519531 89.921875 -170.578125 71.921875 -170.578125 L 64.390625 -170.578125 Z M 64.390625 -43.625 " />
            </g>
        </g>
    </g>
    <g clip-path="url(#17cef9ff1b)">
        <g clip-path="url(#63a476438b)">
            <path class="logo-bg-color"
                d="M 308.359375 209.007812 L 382.859375 209.007812 L 382.859375 283.507812 L 308.359375 283.507812 Z M 308.359375 209.007812 "
                fill-opacity="1" fill-rule="nonzero" />
        </g>
    </g>
    <g clip-path="url(#4bb666e7fc)">
        <g clip-path="url(#dcedc18b6e)">
            <path class="logo-secondary"
                d="M 329.875 230.523438 L 361.34375 230.523438 L 361.34375 261.988281 L 329.875 261.988281 Z M 329.875 230.523438 "
                fill-opacity="1" fill-rule="nonzero" />
        </g>
    </g>
    <g class="logo-name-color" fill-opacity="1">
        <g transform="translate(25.58568, 317.930551)">
            <g>
                <path
                    d="M 22.0625 -21.3125 L 22.0625 0 L 17.140625 0 L 17.140625 -8.734375 L 7.453125 -8.734375 L 7.453125 0 L 2.53125 0 L 2.53125 -21.3125 L 7.453125 -21.3125 L 7.453125 -12.90625 L 17.140625 -12.90625 L 17.140625 -21.3125 Z M 22.0625 -21.3125 " />
            </g>
        </g>
    </g>
    <g class="logo-name-color" fill-opacity="1">
        <g transform="translate(54.353726, 317.930551)">
            <g>
                <path
                    d="M 16.5625 -4.5625 L 6.671875 -4.5625 L 4.78125 0 L -0.28125 0 L 9.21875 -21.3125 L 14.09375 -21.3125 L 23.625 0 L 18.4375 0 Z M 15 -8.3125 L 11.625 -16.46875 L 8.25 -8.3125 Z M 15 -8.3125 " />
            </g>
        </g>
    </g>
    <g class="logo-name-color" fill-opacity="1">
        <g transform="translate(81.843258, 317.930551)">
            <g>
                <path
                    d="M 22.0625 -21.3125 L 22.0625 0 L 18.015625 0 L 7.390625 -12.9375 L 7.390625 0 L 2.53125 0 L 2.53125 -21.3125 L 6.609375 -21.3125 L 17.203125 -8.375 L 17.203125 -21.3125 Z M 22.0625 -21.3125 " />
            </g>
        </g>
    </g>
    <g class="logo-name-color" fill-opacity="1">
        <g transform="translate(110.611307, 317.930551)">
            <g>
                <path
                    d="M 9.53125 0.359375 C 7.84375 0.359375 6.210938 0.132812 4.640625 -0.3125 C 3.066406 -0.769531 1.804688 -1.363281 0.859375 -2.09375 L 2.53125 -5.8125 C 3.4375 -5.144531 4.519531 -4.609375 5.78125 -4.203125 C 7.039062 -3.796875 8.300781 -3.59375 9.5625 -3.59375 C 10.957031 -3.59375 11.988281 -3.800781 12.65625 -4.21875 C 13.332031 -4.632812 13.671875 -5.1875 13.671875 -5.875 C 13.671875 -6.382812 13.472656 -6.804688 13.078125 -7.140625 C 12.679688 -7.472656 12.171875 -7.738281 11.546875 -7.9375 C 10.929688 -8.144531 10.097656 -8.367188 9.046875 -8.609375 C 7.421875 -8.992188 6.085938 -9.378906 5.046875 -9.765625 C 4.015625 -10.148438 3.128906 -10.769531 2.390625 -11.625 C 1.648438 -12.476562 1.28125 -13.613281 1.28125 -15.03125 C 1.28125 -16.269531 1.613281 -17.390625 2.28125 -18.390625 C 2.945312 -19.398438 3.953125 -20.195312 5.296875 -20.78125 C 6.648438 -21.375 8.300781 -21.671875 10.25 -21.671875 C 11.613281 -21.671875 12.941406 -21.507812 14.234375 -21.1875 C 15.535156 -20.863281 16.675781 -20.394531 17.65625 -19.78125 L 16.125 -16.046875 C 14.15625 -17.160156 12.191406 -17.71875 10.234375 -17.71875 C 8.847656 -17.71875 7.820312 -17.492188 7.15625 -17.046875 C 6.5 -16.597656 6.171875 -16.007812 6.171875 -15.28125 C 6.171875 -14.550781 6.550781 -14.007812 7.3125 -13.65625 C 8.082031 -13.300781 9.25 -12.945312 10.8125 -12.59375 C 12.425781 -12.207031 13.75 -11.820312 14.78125 -11.4375 C 15.820312 -11.050781 16.710938 -10.441406 17.453125 -9.609375 C 18.191406 -8.785156 18.5625 -7.660156 18.5625 -6.234375 C 18.5625 -5.015625 18.222656 -3.90625 17.546875 -2.90625 C 16.867188 -1.90625 15.847656 -1.109375 14.484375 -0.515625 C 13.128906 0.0664062 11.476562 0.359375 9.53125 0.359375 Z M 9.53125 0.359375 " />
            </g>
        </g>
    </g>
    <g class="logo-name-color" fill-opacity="1">
        <g transform="translate(134.204436, 317.930551)">
            <g />
        </g>
    </g>
    <g class="logo-name-color" fill-opacity="1">
        <g transform="translate(146.991136, 317.930551)">
            <g>
                <path
                    d="M 2.53125 -21.3125 L 12.203125 -21.3125 C 14.515625 -21.3125 16.554688 -20.867188 18.328125 -19.984375 C 20.109375 -19.097656 21.488281 -17.851562 22.46875 -16.25 C 23.457031 -14.644531 23.953125 -12.78125 23.953125 -10.65625 C 23.953125 -8.519531 23.457031 -6.648438 22.46875 -5.046875 C 21.488281 -3.441406 20.109375 -2.195312 18.328125 -1.3125 C 16.554688 -0.4375 14.515625 0 12.203125 0 L 2.53125 0 Z M 11.96875 -4.046875 C 14.09375 -4.046875 15.789062 -4.640625 17.0625 -5.828125 C 18.332031 -7.015625 18.96875 -8.625 18.96875 -10.65625 C 18.96875 -12.6875 18.332031 -14.296875 17.0625 -15.484375 C 15.789062 -16.671875 14.09375 -17.265625 11.96875 -17.265625 L 7.453125 -17.265625 L 7.453125 -4.046875 Z M 11.96875 -4.046875 " />
            </g>
        </g>
    </g>
    <g class="logo-name-color" fill-opacity="1">
        <g transform="translate(176.307109, 317.930551)">
            <g>
                <path
                    d="M 2.53125 -21.3125 L 7.453125 -21.3125 L 7.453125 0 L 2.53125 0 Z M 2.53125 -21.3125 " />
            </g>
        </g>
    </g>
    <g class="logo-name-color" fill-opacity="1">
        <g transform="translate(190.463651, 317.930551)">
            <g>
                <path
                    d="M 21.921875 0 L 21.890625 -12.78125 L 15.609375 -2.25 L 13.390625 -2.25 L 7.15625 -12.515625 L 7.15625 0 L 2.53125 0 L 2.53125 -21.3125 L 6.609375 -21.3125 L 14.578125 -8.0625 L 22.4375 -21.3125 L 26.484375 -21.3125 L 26.546875 0 Z M 21.921875 0 " />
            </g>
        </g>
    </g>
    <g class="logo-name-color" fill-opacity="1">
        <g transform="translate(223.706463, 317.930551)">
            <g>
                <path
                    d="M 16.5625 -4.5625 L 6.671875 -4.5625 L 4.78125 0 L -0.28125 0 L 9.21875 -21.3125 L 14.09375 -21.3125 L 23.625 0 L 18.4375 0 Z M 15 -8.3125 L 11.625 -16.46875 L 8.25 -8.3125 Z M 15 -8.3125 " />
            </g>
        </g>
    </g>
    <g class="logo-name-color" fill-opacity="1">
        <g transform="translate(251.196003, 317.930551)">
            <g>
                <path
                    d="M 16.5625 -4.5625 L 6.671875 -4.5625 L 4.78125 0 L -0.28125 0 L 9.21875 -21.3125 L 14.09375 -21.3125 L 23.625 0 L 18.4375 0 Z M 15 -8.3125 L 11.625 -16.46875 L 8.25 -8.3125 Z M 15 -8.3125 " />
            </g>
        </g>
    </g>
    <g class="logo-name-color" fill-opacity="1">
        <g transform="translate(278.685543, 317.930551)">
            <g>
                <path
                    d="M 22.0625 -21.3125 L 22.0625 0 L 18.015625 0 L 7.390625 -12.9375 L 7.390625 0 L 2.53125 0 L 2.53125 -21.3125 L 6.609375 -21.3125 L 17.203125 -8.375 L 17.203125 -21.3125 Z M 22.0625 -21.3125 " />
            </g>
        </g>
    </g>
    <g class="logo-name-color" fill-opacity="1">
        <g transform="translate(307.453596, 317.930551)">
            <g>
                <path
                    d="M 12.84375 0.359375 C 10.632812 0.359375 8.640625 -0.113281 6.859375 -1.0625 C 5.085938 -2.019531 3.695312 -3.332031 2.6875 -5 C 1.6875 -6.675781 1.1875 -8.5625 1.1875 -10.65625 C 1.1875 -12.738281 1.6875 -14.617188 2.6875 -16.296875 C 3.695312 -17.972656 5.085938 -19.285156 6.859375 -20.234375 C 8.640625 -21.191406 10.632812 -21.671875 12.84375 -21.671875 C 15.050781 -21.671875 17.035156 -21.191406 18.796875 -20.234375 C 20.566406 -19.285156 21.957031 -17.972656 22.96875 -16.296875 C 23.988281 -14.617188 24.5 -12.738281 24.5 -10.65625 C 24.5 -8.5625 23.988281 -6.675781 22.96875 -5 C 21.957031 -3.332031 20.566406 -2.019531 18.796875 -1.0625 C 17.035156 -0.113281 15.050781 0.359375 12.84375 0.359375 Z M 12.84375 -3.828125 C 14.101562 -3.828125 15.238281 -4.113281 16.25 -4.6875 C 17.269531 -5.269531 18.066406 -6.078125 18.640625 -7.109375 C 19.222656 -8.148438 19.515625 -9.332031 19.515625 -10.65625 C 19.515625 -11.96875 19.222656 -13.140625 18.640625 -14.171875 C 18.066406 -15.210938 17.269531 -16.019531 16.25 -16.59375 C 15.238281 -17.175781 14.101562 -17.46875 12.84375 -17.46875 C 11.582031 -17.46875 10.441406 -17.175781 9.421875 -16.59375 C 8.410156 -16.019531 7.613281 -15.210938 7.03125 -14.171875 C 6.457031 -13.140625 6.171875 -11.96875 6.171875 -10.65625 C 6.171875 -9.332031 6.457031 -8.148438 7.03125 -7.109375 C 7.613281 -6.078125 8.410156 -5.269531 9.421875 -4.6875 C 10.441406 -4.113281 11.582031 -3.828125 12.84375 -3.828125 Z M 12.84375 -3.828125 " />
            </g>
        </g>
    </g>
</svg>